<svg preserveAspectRatio="none" width="100%" height="100%" overflow="visible" style="display: block;" viewBox="0 0 48 48" fill="none" xmlns="http://www.w3.org/2000/svg">
<g id="67f43269c99667e6315af38c_Colossyan%20Icon.svg" clip-path="url(#clip0_0_37)">
<path id="Vector" d="M36 0H12C5.37258 0 0 5.37258 0 12V36C0 42.6274 5.37258 48 12 48H36C42.6274 48 48 42.6274 48 36V12C48 5.37258 42.6274 0 36 0Z" fill="var(--fill-0, #F0F7FF)"/>
<path id="Vector_2" d="M33.6602 22.44L32.6802 26.62C31.8402 30.23 30.1802 31.69 27.0602 31.39C26.5602 31.35 26.0202 31.26 25.4402 31.12L23.7602 30.72C19.5902 29.73 18.3002 27.67 19.2802 23.49L20.2602 19.3C20.4602 18.45 20.7002 17.71 21.0002 17.1C22.1702 14.68 24.1602 14.03 27.5002 14.82L29.1702 15.21C33.3602 16.19 34.6402 18.26 33.6602 22.44Z" stroke="var(--stroke-0, #0720FF)" stroke-width="1.5" stroke-linecap="round" stroke-linejoin="round"/>
<path id="Vector_3" d="M27.0603 31.39C26.4403 31.81 25.6603 32.16 24.7103 32.47L23.1303 32.99C19.1603 34.27 17.0703 33.2 15.7803 29.23L14.5003 25.28C13.2203 21.31 14.2803 19.21 18.2503 17.93L19.8303 17.41C20.2403 17.28 20.6303 17.17 21.0003 17.1C20.7003 17.71 20.4603 18.45 20.2603 19.3L19.2803 23.49C18.3003 27.67 19.5903 29.73 23.7603 30.72L25.4403 31.12C26.0203 31.26 26.5603 31.35 27.0603 31.39Z" stroke="var(--stroke-0, #0720FF)" stroke-width="1.5" stroke-linecap="round" stroke-linejoin="round"/>
<path id="Vector_4" d="M24.6406 20.53L29.4906 21.76" stroke="var(--stroke-0, #0720FF)" stroke-width="1.5" stroke-linecap="round" stroke-linejoin="round"/>
<path id="Vector_5" d="M23.6602 24.4L26.5602 25.14" stroke="var(--stroke-0, #0720FF)" stroke-width="1.5" stroke-linecap="round" stroke-linejoin="round"/>
</g>
<defs>
<clipPath id="clip0_0_37">
<rect width="48" height="48" fill="white"/>
</clipPath>
</defs>
</svg>
