<svg preserveAspectRatio="none" width="100%" height="100%" overflow="visible" style="display: block;" viewBox="0 0 48 48" fill="none" xmlns="http://www.w3.org/2000/svg">
<g id="67ef03a46ba2f64b0281d06a_Colossyan%20Icon%20(19).svg" clip-path="url(#clip0_0_4)">
<path id="Vector" d="M36 0H12C5.37258 0 0 5.37258 0 12V36C0 42.6274 5.37258 48 12 48H36C42.6274 48 48 42.6274 48 36V12C48 5.37258 42.6274 0 36 0Z" fill="var(--fill-0, #F0F7FF)"/>
<path id="Vector_2" d="M17 20C18.6569 20 20 18.6569 20 17C20 15.3431 18.6569 14 17 14C15.3431 14 14 15.3431 14 17C14 18.6569 15.3431 20 17 20Z" stroke="var(--stroke-0, #0720FF)" stroke-width="1.5" stroke-linecap="round" stroke-linejoin="round"/>
<path id="Vector_3" d="M31 27C32.6569 27 34 25.6569 34 24C34 22.3431 32.6569 21 31 21C29.3431 21 28 22.3431 28 24C28 25.6569 29.3431 27 31 27Z" stroke="var(--stroke-0, #0720FF)" stroke-width="1.5" stroke-linecap="round" stroke-linejoin="round"/>
<path id="Vector_4" d="M17 34C18.6569 34 20 32.6569 20 31C20 29.3431 18.6569 28 17 28C15.3431 28 14 29.3431 14 31C14 32.6569 15.3431 34 17 34Z" stroke="var(--stroke-0, #0720FF)" stroke-width="1.5" stroke-linecap="round" stroke-linejoin="round"/>
<path id="Vector_5" d="M28 24H21C18.8 24 17 23 17 20V28" stroke="var(--stroke-0, #0720FF)" stroke-width="1.5" stroke-linecap="round" stroke-linejoin="round"/>
</g>
<defs>
<clipPath id="clip0_0_4">
<rect width="48" height="48" fill="white"/>
</clipPath>
</defs>
</svg>
