<svg preserveAspectRatio="none" width="100%" height="100%" overflow="visible" style="display: block;" viewBox="0 0 49 48" fill="none" xmlns="http://www.w3.org/2000/svg">
<g id="67b7648b960922d605378072_Icon%20from%20Figma%20(11).svg" clip-path="url(#clip0_0_13)">
<path id="Vector" d="M36.666 0H12.666C6.0386 0 0.666016 5.37258 0.666016 12V36C0.666016 42.6274 6.0386 48 12.666 48H36.666C43.2934 48 48.666 42.6274 48.666 36V12C48.666 5.37258 43.2934 0 36.666 0Z" fill="var(--fill-0, #F0F7FF)"/>
<path id="Vector_2" d="M24.166 23L34.666 34" stroke="var(--stroke-0, #0720FF)" stroke-width="1.5" stroke-linecap="round" stroke-linejoin="round"/>
<path id="Vector_3" d="M19.4174 33.7667C19.3861 33.9011 19.3053 34 19.166 34C19.0267 34 18.9459 33.9011 18.9146 33.7667L18.9048 33.7179C18.4423 31.4149 18.3999 31.2037 15.9074 30.7555C15.765 30.7242 15.666 30.6434 15.666 30.5C15.666 30.3566 15.765 30.2667 15.9074 30.2404C18.4174 29.784 18.4428 29.5731 18.9146 27.2242C18.9459 27.0899 19.0267 27 19.166 27C19.3053 27 19.3861 27.0899 19.4174 27.2242L19.4226 27.2498C19.8895 29.5746 19.9319 29.7857 22.4246 30.2404C22.5671 30.2667 22.666 30.3566 22.666 30.5C22.666 30.6434 22.5671 30.7242 22.4246 30.7555C19.9319 31.2052 19.8895 31.4163 19.4226 33.7411L19.4174 33.7667Z" fill="var(--fill-0, #0720FF)"/>
<path id="Vector_4" d="M17.8815 22.8C17.8547 22.9152 17.7854 23 17.666 23C17.5466 23 17.4773 22.9152 17.4505 22.8L17.4421 22.7582C17.0457 20.7842 17.0094 20.6032 14.873 20.219C14.7508 20.1922 14.666 20.1229 14.666 20C14.666 19.8771 14.7508 19.8001 14.873 19.7775C17.0243 19.3863 17.0461 19.2055 17.4505 17.1922C17.4773 17.077 17.5466 17 17.666 17C17.7854 17 17.8547 17.077 17.8815 17.1922L17.8859 17.2141C18.2862 19.2068 18.3225 19.3877 20.4591 19.7775C20.5812 19.8001 20.666 19.8771 20.666 20C20.666 20.1229 20.5812 20.1922 20.4591 20.219C18.3225 20.6045 18.2862 20.7854 17.8859 22.7781L17.8815 22.8Z" fill="var(--fill-0, #0720FF)"/>
<path id="Vector_5" d="M28.4174 20.7667C28.3861 20.9011 28.3053 21 28.166 21C28.0267 21 27.9459 20.9011 27.9146 20.7667L27.9048 20.7179C27.4423 18.4149 27.3999 18.2037 24.9074 17.7555C24.765 17.7242 24.666 17.6434 24.666 17.5C24.666 17.3566 24.765 17.2667 24.9074 17.2404C27.4174 16.784 27.4428 16.5731 27.9146 14.2242C27.9459 14.0899 28.0267 14 28.166 14C28.3053 14 28.3861 14.0899 28.4174 14.2242L28.4226 14.2498C28.8895 16.5746 28.9319 16.7857 31.4246 17.2404C31.5671 17.2667 31.666 17.3566 31.666 17.5C31.666 17.6434 31.5671 17.7242 31.4246 17.7555C28.9319 18.2052 28.8895 18.4163 28.4226 20.7411L28.4174 20.7667Z" fill="var(--fill-0, #0720FF)"/>
</g>
<defs>
<clipPath id="clip0_0_13">
<rect width="49" height="48" fill="white"/>
</clipPath>
</defs>
</svg>
