<svg preserveAspectRatio="none" width="100%" height="100%" overflow="visible" style="display: block;" viewBox="0 0 49 49" fill="none" xmlns="http://www.w3.org/2000/svg">
<g id="67ef021e15d6c9ccea450e25_Landing%20Page%20Frame%20(6).svg" clip-path="url(#clip0_0_10)">
<path id="Vector" d="M36.0206 0H12C5.37258 0 0 5.37258 0 12V36.0206C0 42.648 5.37258 48.0206 12 48.0206H36.0206C42.648 48.0206 48.0206 42.648 48.0206 36.0206V12C48.0206 5.37258 42.648 0 36.0206 0Z" fill="var(--fill-0, #F0F7FF)"/>
<path id="Vector_2" d="M29.0145 30.891C31.1377 29.3441 32.5175 26.8384 32.5175 24.0105C32.5175 19.312 28.7087 15.5032 24.0102 15.5032H23.5098M24.0102 32.5178C19.3118 32.5178 15.5029 28.7089 15.5029 24.0105C15.5029 21.1825 16.8828 18.6768 19.0059 17.13M23.0094 34.4194L25.0111 32.4177L23.0094 30.416M25.0111 17.605L23.0094 15.6033L25.0111 13.6016" stroke="var(--stroke-0, #0720FF)" stroke-width="1.6" stroke-linecap="round" stroke-linejoin="round"/>
</g>
<defs>
<clipPath id="clip0_0_10">
<rect width="49" height="49" fill="white"/>
</clipPath>
</defs>
</svg>
