<svg preserveAspectRatio="none" width="100%" height="100%" overflow="visible" style="display: block;" viewBox="0 0 124 24" fill="none" xmlns="http://www.w3.org/2000/svg">
<g id="6632371109d198461aa1c3fb_logo.svg" clip-path="url(#clip0_0_50)">
<path id="Vector" d="M123.511 18.1344H106.874V17.5705H123.511V18.1344ZM115.22 14.9762L116.8 13.4534L117.42 14.0738L115.728 15.4837C115.615 15.6529 115.502 15.9349 115.39 16.1041H114.149C114.348 15.6047 114.732 15.2009 115.22 14.9762ZM109.919 5.38853C109.863 5.38853 108.622 5.72692 108.622 5.72692C108.332 5.84182 108.05 5.97365 107.776 6.12171C107.494 6.2909 107.212 6.57289 107.212 6.74208L108.34 7.02407C108.495 6.84105 108.664 6.67127 108.847 6.51649L109.129 6.40369L110.032 5.44493C110.088 5.38853 110.088 5.33214 109.891 5.38853H109.919ZM117.533 8.43401C116.846 7.68392 116.206 6.8929 115.615 6.06531C116.04 5.01098 116.195 3.86726 116.066 2.73784C115.836 2.32204 115.572 1.92591 115.277 1.55348C115.164 1.38429 114.656 0.820312 114.431 0.820312C114.374 0.820312 114.318 0.820312 114.318 0.87671L114.374 1.49709C113.641 1.94827 112.795 2.51225 112.062 3.07622C112.048 3.30336 112.067 3.53139 112.119 3.753C112.237 3.84898 112.37 3.92516 112.513 3.97859C113.016 3.8574 113.524 3.76327 114.036 3.6966L113.077 5.10654L111.949 5.89611L110.596 5.44493C110.483 5.44493 110.427 5.44493 110.37 5.50133L109.355 6.57289C109.321 6.59973 109.293 6.63391 109.273 6.67294C109.254 6.71196 109.243 6.75485 109.242 6.79848L109.186 7.98283V8.37762C109.167 8.84218 109.306 9.29937 109.581 9.67477L110.201 8.716C110.074 8.50589 109.978 8.27773 109.919 8.03923V7.02407L110.539 6.57289L112.231 7.75724C112.488 8.23618 112.79 8.68943 113.134 9.11079C113.886 9.76798 114.698 10.3533 115.559 10.8591C115.631 11.3011 115.744 11.7353 115.897 12.1563L117.928 14.243L116.743 15.7657C116.515 15.886 116.322 16.0638 116.184 16.2814C116.045 16.4989 115.966 16.7489 115.954 17.0065H117.364L117.533 16.2169L119.225 14.3558C119.337 14.243 119.337 14.1866 119.281 14.0738L118.83 12.4947C119.258 12.0073 119.516 11.3934 119.563 10.7463C119.563 9.22358 118.04 8.8288 117.533 8.40582V8.43401ZM120.071 10.9155C119.967 10.5486 119.835 10.1904 119.676 9.84396C119.676 9.84396 119.732 9.78756 119.901 9.84396C120.071 9.90036 120.917 10.5207 120.917 10.5207C121.368 11.1411 121.65 13.8482 121.65 14.807C121.156 14.6004 120.698 14.3147 120.296 13.961L120.071 10.9155ZM76.8699 10.2951C76.8699 9.27998 76.5316 8.49041 75.6856 8.49041C74.8396 8.49041 74.4448 9.27998 74.4448 10.2951V17.0065H75.46V18.078H69.7638V17.0065H70.8354V7.75724H69.7638V6.71388H74.2192V8.46221H74.2756C74.5261 7.87685 74.9428 7.37783 75.4742 7.02697C76.0055 6.6761 76.628 6.48881 77.2647 6.48829C77.9671 6.44615 78.6604 6.66448 79.2119 7.10151C79.7633 7.53853 80.1343 8.16356 80.2538 8.857C80.3635 9.47136 80.4201 10.094 80.423 10.7181V17.0347H81.7765V18.1062H76.8135L76.8699 10.2669M53.8032 10.2669C53.8032 9.25178 53.4649 8.46221 52.6189 8.46221C51.7729 8.46221 51.3781 9.25178 51.3781 10.2669V16.9783H52.3933V18.0498H46.6971V16.9783H47.7687V7.75724H46.6971V6.71388H51.1525V8.46221H51.2089C51.4594 7.87685 51.8761 7.37783 52.4074 7.02697C52.9388 6.6761 53.5613 6.48881 54.198 6.48829C54.9004 6.44615 55.5937 6.66448 56.1452 7.10151C56.6967 7.53853 57.0676 8.16356 57.1871 8.857C57.2968 9.47136 57.3535 10.094 57.3563 10.7181V17.0347H58.7099V18.1062H53.7468L53.8032 10.2669ZM86.6832 7.72904V16.1323C86.6745 16.2308 86.6876 16.3299 86.7214 16.4228C86.7552 16.5156 86.8089 16.6 86.8788 16.6698C86.9487 16.7397 87.033 16.7934 87.1259 16.8272C87.2187 16.861 87.3179 16.8741 87.4163 16.8655C87.6461 16.8597 87.8739 16.8217 88.0931 16.7527V17.7679C87.4141 18.1139 86.654 18.2698 85.8936 18.219C84.1453 18.219 83.0737 17.3731 83.0737 15.5119V7.75724H81.8893V7.02407C83.2429 5.95251 84.822 4.71176 86.0628 3.6966H86.7395V6.71388H88.4597V7.72904H86.6832ZM15.5655 0.820312C15.5655 0.820312 18.329 3.5838 19.5698 4.99375V6.06531C17.9663 4.59827 15.8776 3.77485 13.7044 3.753C8.57221 3.753 5.35754 7.64445 5.35754 12.4383C5.35754 17.2321 8.40302 21.0671 13.7044 21.0671C14.8107 21.0764 15.9071 20.8584 16.9257 20.4267C17.9443 19.995 18.8635 19.3588 19.6262 18.5574V19.5726C18.047 21.7721 15.1144 23.182 11.4485 23.182C4.90635 23.2384 0.394531 18.501 0.394531 12.4665C0.404812 11.0283 0.699399 9.60641 1.26134 8.28257C1.82328 6.95873 2.64148 5.75908 3.66885 4.75268C4.69623 3.74627 5.91248 2.95298 7.24763 2.41845C8.58278 1.88392 10.0105 1.61871 11.4485 1.63808C12.8482 1.64239 14.2381 1.87088 15.5655 2.31485V0.820312ZM68.0719 15.089C67.7692 15.4472 67.3876 15.7304 66.957 15.9163C66.5265 16.1022 66.0587 16.1858 65.5904 16.1605C64.5752 16.1605 62.9397 15.5965 62.8833 12.9458H68.9743C68.9743 12.7202 69.0307 12.3255 69.0307 12.0999C69.0307 8.8852 67.7335 6.51649 64.2932 6.51649C60.853 6.51649 59.1046 9.16719 59.1046 12.4383C59.1046 15.7093 60.853 18.3036 64.2932 18.3036C65.2149 18.3529 66.1305 18.1273 66.9237 17.6553C67.717 17.1834 68.3522 16.4864 68.7487 15.6529L68.0719 15.089ZM62.8269 11.8179C62.8269 8.8288 63.0525 7.70084 64.0676 7.70084C65.0828 7.70084 65.3084 8.7724 65.3648 11.8179H62.8269ZM12.5765 12.3819C12.5765 8.8852 12.9148 7.36246 14.0992 7.36246C15.2835 7.36246 15.6219 8.8852 15.6219 12.3819C15.6219 15.8785 15.2835 17.4013 14.0992 17.4013C12.9148 17.4013 12.5765 15.8785 12.5765 12.3819ZM8.34662 12.4383C8.34662 15.8785 10.4333 18.6984 14.0992 18.6984C17.7651 18.6984 19.8518 15.8785 19.8518 12.4383C19.8518 8.99799 17.7651 6.1499 14.0992 6.1499C10.4333 6.1499 8.34662 8.96979 8.34662 12.4101M27.8603 10.2669C27.8603 9.25178 27.5219 8.46221 26.6759 8.46221C25.8299 8.46221 25.4352 9.25178 25.4352 10.2669V16.9783H26.4221V18.0498H20.7541V16.9783H21.8257V7.75724H20.7541V6.71388H25.2096V8.46221H25.266C25.5164 7.87685 25.9332 7.37783 26.4645 7.02697C26.9958 6.6761 27.6183 6.48881 28.255 6.48829C28.9574 6.44615 29.6507 6.66448 30.2022 7.10151C30.7537 7.53853 31.1246 8.16356 31.2441 8.857C31.3539 9.47136 31.4105 10.094 31.4133 10.7181V17.0347H32.7669V18.1062H27.8039V10.2951L27.8603 10.2669ZM40.7754 3.6684C40.7754 4.68356 41.6777 5.36034 42.9749 5.36034C44.272 5.36034 45.1744 4.68356 45.1744 3.6684C45.1744 2.65324 44.272 1.97647 42.9749 1.97647C41.6777 1.97647 40.7754 2.70964 40.7754 3.6684ZM37.6735 7.72904V16.1323C37.6649 16.2308 37.6779 16.3299 37.7117 16.4228C37.7455 16.5156 37.7992 16.6 37.8691 16.6698C37.939 16.7397 38.0233 16.7934 38.1162 16.8272C38.2091 16.861 38.3082 16.8741 38.4066 16.8655C38.6364 16.8597 38.8642 16.8217 39.0834 16.7527V17.7679C38.4044 18.1139 37.6444 18.2698 36.8839 18.219C35.1356 18.219 34.064 17.3731 34.064 15.5119V7.75724H32.8797V7.02407C34.2332 5.95251 35.8123 4.71176 37.0531 3.6966H37.7017V6.71388H39.1116V7.72904H37.6735ZM104.223 17.0347H105.633V18.1062H100.613V3.5838H99.3727V2.51225H104.251V17.0629L104.223 17.0347ZM94.5788 12.4665C94.3558 12.29 94.0719 12.2089 93.7893 12.2409C92.7177 12.2409 92.4921 13.3124 92.4921 14.384C92.4921 15.4555 92.8305 16.3015 93.7329 16.3015C93.8907 16.3168 94.0498 16.294 94.197 16.2351C94.3442 16.1762 94.4751 16.083 94.5788 15.9631V12.4665ZM94.6916 16.7527C94.3683 17.2479 93.9243 17.6527 93.4014 17.9289C92.8784 18.2052 92.2938 18.3438 91.7026 18.3318C89.8414 18.3318 88.7135 16.7527 88.7135 14.8352C88.7135 12.5793 90.349 11.1129 92.9433 11.1129C93.4974 11.0932 94.0508 11.1695 94.5788 11.3385V10.6053C94.6029 10.3252 94.5654 10.0433 94.4691 9.77918C94.3727 9.51509 94.2198 9.27526 94.021 9.07648C93.8222 8.87769 93.5824 8.72476 93.3183 8.6284C93.0542 8.53204 92.7722 8.49457 92.4921 8.51861C91.9828 8.51963 91.4813 8.64314 91.0298 8.87872C90.5782 9.1143 90.19 9.45503 89.8978 9.87216L89.2775 9.08259C89.7514 8.30632 90.4131 7.66181 91.2016 7.20844C91.9901 6.75507 92.88 6.50741 93.7893 6.48829C96.5528 6.48829 98.1883 8.12383 98.1883 10.6053V17.0347H99.3727V18.1062H94.748L94.6916 16.7527ZM40.155 18.1062V17.0347H41.1701V7.75724H40.155V6.71388H44.7796V17.0347H45.8512V18.1062H40.155Z" fill="var(--fill-0, #BDBDBD)"/>
</g>
<defs>
<clipPath id="clip0_0_50">
<rect width="124" height="24" fill="white"/>
</clipPath>
</defs>
</svg>
