<svg preserveAspectRatio="none" width="100%" height="100%" overflow="visible" style="display: block;" viewBox="0 0 58 28" fill="none" xmlns="http://www.w3.org/2000/svg">
<g id="663237c9b5a60693ff49ac34_Group%204.svg" clip-path="url(#clip0_0_28)">
<path id="Vector" d="M53.7677 7.70421C53.7677 4.5949 52.6307 2.00104 51.1435 0.30161H55.4649C56.8816 2.02909 57.7586 4.96784 57.7586 7.70421V7.71406C57.7586 10.455 56.8793 13.3983 55.4581 15.125H51.1367C52.6269 13.4256 53.7677 10.8287 53.7677 7.71406V7.70421Z" fill="var(--fill-0, #BDBDBD)"/>
<path id="Vector_2" d="M4.13562 0.30715H0.152344L5.61902 15.1328H7.7361L8.6692 12.6019L4.13562 0.30715Z" fill="var(--fill-0, #BDBDBD)"/>
<path id="Vector_3" d="M14.8231 0.30715H10.8398L16.3065 15.1328H18.4236L19.3567 12.6019L14.8231 0.30715Z" fill="var(--fill-0, #BDBDBD)"/>
<path id="Vector_4" d="M45.2487 27.6953V13.7421V13.3813V12.2769V2.62987V1.86732V1.42617V0.302059H41.4375V12.2769V27.6953H45.2487Z" fill="var(--fill-0, #BDBDBD)"/>
<path id="Vector_5" d="M23.4004 2.50056C23.4625 1.74105 23.5997 0.992904 23.915 0.30161H27.4011C27.11 0.827661 26.8364 1.78653 27.1471 2.73933C27.4284 3.60041 28.0241 4.18786 28.7753 4.67146C29.6652 5.24451 30.7037 5.56363 31.6572 6.00857C32.6578 6.47398 33.6318 6.96137 34.4679 7.68753C35.6829 8.74266 36.422 9.99412 36.5425 11.6117C36.5569 11.805 36.563 11.999 36.563 12.1931C36.563 13.2065 36.4038 14.2109 35.9513 15.125H32.372C32.7237 14.5262 33.0012 13.7098 32.9504 12.9564C32.8253 11.0887 30.5445 10.0676 28.6343 9.21793C28.3433 9.08831 28.0575 8.96097 27.7839 8.83362C26.944 8.44098 26.1201 7.98997 25.4037 7.39495C24.6639 6.78021 24.1015 6.16472 23.7566 5.26194C23.4534 4.46984 23.3428 3.61102 23.3829 2.76662C23.3875 2.67793 23.3928 2.58924 23.4004 2.50056Z" fill="var(--fill-0, #BDBDBD)"/>
</g>
<defs>
<clipPath id="clip0_0_28">
<rect width="58" height="28" fill="white"/>
</clipPath>
</defs>
</svg>
