<svg preserveAspectRatio="none" width="100%" height="100%" overflow="visible" style="display: block;" viewBox="0 0 134 22" fill="none" xmlns="http://www.w3.org/2000/svg">
<g id="6632365befed92bc9ea690cf_Group%203.svg" clip-path="url(#clip0_0_43)">
<path id="Vector" d="M13.3321 9.86626L13.278 10.0062C14.1806 10.4033 16.207 11.9785 16.207 15.1513C16.207 18.139 13.6887 21.1494 9.73055 21.1494C4.8066 21.1494 3.10962 18.2699 3.10962 15.6252C3.10962 12.2357 5.47907 9.9791 5.47907 6.89204C5.46617 5.80022 5.08329 4.74508 4.39303 3.89905C3.70276 3.05302 2.74593 2.46616 1.67893 2.23438L1.59769 2.37429C1.98464 2.74974 2.29166 3.19958 2.50029 3.69674C2.70893 4.1939 2.81487 4.72812 2.81175 5.26727C2.81175 8.60256 0 10.972 0 14.7992C0 18.3241 2.46423 21.9166 9.59966 21.9166C15.9588 21.9166 19.3122 18.8025 19.3122 15.4898C19.3076 12.6464 17.2722 10.2409 13.3321 9.86626Z" fill="var(--fill-0, #BDBDBD)"/>
<path id="Vector_2" d="M41.2704 21.3478L32.8171 10.4483V20.2737L34.5412 20.6844V21.1357H30.6102V20.6844L32.0183 20.2737V9.56826C31.6756 9.24879 31.2629 9.01387 30.8133 8.88224C30.6418 8.84614 30.4116 8.80552 30.4116 8.80552V8.35419H33.7469L40.9681 17.7417V9.22525L39.244 8.81003V8.35871H43.175V8.81003L41.7669 9.22525V18.9693C41.7669 19.872 41.8301 21.1853 41.8436 21.3523L41.2704 21.3478ZM58.9443 14.4064C58.9443 18.9197 55.785 21.5374 52.3324 21.5374C48.8798 21.5374 45.707 18.8836 45.707 14.7585C45.707 10.6334 48.8662 7.95252 52.3008 7.95252C53.1653 7.92398 54.0268 8.07013 54.8335 8.38224C55.6403 8.69435 56.3758 9.16599 56.996 9.76895C57.6162 10.3719 58.1084 11.0938 58.4432 11.8914C58.778 12.689 58.9484 13.546 58.9443 14.411V14.4064ZM56.7463 15.0834C56.7463 11.7662 54.7605 8.54826 52.0616 8.54826C49.1912 8.54826 47.8959 11.3239 47.8959 14.2936C47.8959 17.2633 49.5342 20.9461 52.6167 20.9461C55.5142 20.9461 56.7463 18.0125 56.7463 15.0834ZM61.6748 9.21622L60.3208 8.801V8.34968H65.5065V8.801L63.8818 9.21622L67.4608 18.9738L71.0398 9.21622L69.415 8.801V8.34968H73.2513V8.801L71.8973 9.21622L67.4156 21.3794H66.2693L61.6748 9.21622ZM92.3197 14.6095H91.4983V9.02215C94.2062 9.02215 95.8175 9.64498 95.8175 11.8565C95.8039 13.4993 94.3958 14.6095 92.3197 14.6095ZM115.522 20.6844L117.328 20.2737V9.22074L115.522 8.80552V8.35419H121.15V8.80552L119.345 9.22074V20.2737L121.15 20.6844V21.1357H115.522V20.6844ZM124.598 17.6244H124.955L126.151 20.3775C126.862 20.7346 127.644 20.9289 128.439 20.9461C129.992 20.9461 131.409 20.0435 131.409 18.4277C131.409 17.2001 130.615 16.469 129.328 15.7965L128.056 15.1376C126.535 14.3478 125.014 13.2285 125.014 11.4277C125.014 9.46896 126.368 7.95703 129.265 7.95703C130.283 7.96737 131.294 8.13326 132.262 8.44897L132.564 11.4097H132.181L131.075 9.03569C130.502 8.716 129.858 8.5482 129.202 8.54826C127.735 8.54826 126.738 9.45091 126.738 10.7011C126.738 11.8339 127.491 12.547 128.782 13.215L130.29 14.0003C132.348 15.0654 133.322 16.0538 133.322 17.8816C133.322 20.1383 131.206 21.5419 128.575 21.5419C127.336 21.5607 126.102 21.3762 124.923 20.9958L124.598 17.6244ZM72.4253 20.6844L73.8741 20.2737L78.3467 8.34517L79.8406 7.96154L84.4576 20.2691L85.9064 20.6844V21.1357H80.4273V20.6844L82.2823 20.2691L80.9734 16.7308H76.054L74.7542 20.2691L76.6091 20.6799V21.1312H72.4253V20.6844ZM76.397 15.7875H80.653L78.5408 10.0828L76.397 15.7875ZM94.9013 14.8849C95.3526 14.772 97.8845 14.1266 97.8845 11.7256C97.8845 9.79843 96.4087 8.30455 92.771 8.30455C90.5144 8.30455 88.2578 8.35419 87.9735 8.36322V8.81454L89.4583 9.22976V20.2691L87.9735 20.6844V21.1357H93.2269V20.6844L91.5028 20.2691V15.2775H92.9877L96.7833 21.1447H100.146V20.6934L98.4442 20.2421L94.9013 14.8849ZM105.995 9.01764V20.2737L104.19 20.6844V21.1357H109.818V20.6844L108.012 20.2737V9.02215H111.05L112.052 11.1795H112.44L112.151 8.36773H101.856L101.567 11.1795H101.955L102.948 9.04472L105.995 9.01764ZM9.68679 17.1415L11.4921 0.0859375H7.74609L9.55139 17.1415H9.68679Z" fill="var(--fill-0, #BDBDBD)"/>
</g>
<defs>
<clipPath id="clip0_0_43">
<rect width="134" height="22" fill="white"/>
</clipPath>
</defs>
</svg>
