<svg preserveAspectRatio="none" width="100%" height="100%" overflow="visible" style="display: block;" viewBox="0 0 49 49" fill="none" xmlns="http://www.w3.org/2000/svg">
<g id="67ef023cddaec2fed2664a51_Landing%20Page%20Frame%20427319733%20(1).svg" clip-path="url(#clip0_0_25)">
<path id="Vector" d="M36.0206 0H12C5.37258 0 0 5.37258 0 12V36.0206C0 42.648 5.37258 48.0206 12 48.0206H36.0206C42.648 48.0206 48.0206 42.648 48.0206 36.0206V12C48.0206 5.37258 42.648 0 36.0206 0Z" fill="var(--fill-0, #F0F7FF)"/>
<path id="Vector_2" d="M20.0071 33.0179H28.014M24.0105 29.0145V33.0179M18.8061 29.0145H29.215C30.8966 29.0145 31.7374 29.0145 32.3797 28.6872C32.9446 28.3993 33.404 27.94 33.6918 27.375C34.0191 26.7327 34.0191 25.8919 34.0191 24.2103V19.8066C34.0191 18.125 34.0191 17.2842 33.6918 16.6419C33.404 16.0769 32.9446 15.6176 32.3797 15.3297C31.7374 15.0024 30.8966 15.0024 29.215 15.0024H18.8061C17.1245 15.0024 16.2837 15.0024 15.6414 15.3297C15.0764 15.6176 14.6171 16.0769 14.3292 16.6419C14.002 17.2842 14.002 18.125 14.002 19.8066V24.2103C14.002 25.8919 14.002 26.7327 14.3292 27.375C14.6171 27.94 15.0764 28.3993 15.6414 28.6872C16.2837 29.0145 17.1245 29.0145 18.8061 29.0145Z" stroke="var(--stroke-0, #0720FF)" stroke-width="1.6" stroke-linecap="round" stroke-linejoin="round"/>
</g>
<defs>
<clipPath id="clip0_0_25">
<rect width="49" height="49" fill="white"/>
</clipPath>
</defs>
</svg>
