<svg preserveAspectRatio="none" width="100%" height="100%" overflow="visible" style="display: block;" viewBox="0 0 24 24" fill="none" xmlns="http://www.w3.org/2000/svg">
<g id="695e39f02f46dae80215703c_65f866076f24f80a77f83566_Muted-white.svg">
<path id="Vector" d="M14.0776 10.7451C13.9303 10.7103 13.7969 10.6318 13.6951 10.5198L9.95919 6.41022C9.88968 6.33376 9.83672 6.24375 9.80363 6.14585C9.77055 6.04794 9.75805 5.94426 9.76693 5.8413C9.77581 5.73834 9.80588 5.63833 9.85524 5.54753C9.9046 5.45674 9.97219 5.37713 10.0538 5.3137L13.7897 2.408C13.9005 2.3218 14.0333 2.26843 14.1729 2.25398C14.3126 2.23953 14.4535 2.26457 14.5796 2.32626C14.7057 2.38794 14.812 2.48379 14.8863 2.60289C14.9607 2.722 15.0001 2.85958 15.0001 2.99998V10.0152C15.0001 10.1666 14.9543 10.3144 14.8687 10.4393C14.7831 10.5641 14.6617 10.6602 14.5205 10.7148C14.3793 10.7694 14.2249 10.7799 14.0776 10.7451Z" fill="var(--fill-0, white)"/>
<path id="Vector_2" d="M5.05493 3.24551C4.92112 3.09832 4.73432 3.01031 4.53562 3.00085C4.33692 2.99139 4.1426 3.06125 3.99541 3.19506C3.84822 3.32887 3.76022 3.51568 3.75076 3.71437C3.7413 3.91307 3.81116 4.10739 3.94497 4.25458L6.89534 7.49999H2.99998C2.6023 7.50044 2.22104 7.65862 1.93984 7.93982C1.65863 8.22102 1.50045 8.60228 1.5 8.99996V14.9999C1.50045 15.3975 1.65863 15.7788 1.93984 16.06C2.22104 16.3412 2.6023 16.4994 2.99998 16.4998H7.24255L13.7894 21.5917C13.9002 21.6779 14.033 21.7313 14.1726 21.7458C14.3123 21.7602 14.4532 21.7352 14.5793 21.6735C14.7054 21.6118 14.8117 21.5159 14.886 21.3968C14.9604 21.2777 14.9998 21.1402 14.9998 20.9998V16.4149L18.9447 20.7543C19.011 20.8272 19.0909 20.8863 19.18 20.9283C19.2692 20.9703 19.3657 20.9943 19.464 20.999C19.5624 21.0037 19.6608 20.9889 19.7535 20.9556C19.8461 20.9223 19.9314 20.871 20.0042 20.8048C20.0771 20.7385 20.1362 20.6585 20.1782 20.5694C20.2202 20.4803 20.2442 20.3838 20.2489 20.2854C20.2536 20.1871 20.2388 20.0887 20.2055 19.996C20.1722 19.9033 20.1209 19.8181 20.0547 19.7452L5.05493 3.24551Z" fill="var(--fill-0, white)"/>
<path id="Vector_3" d="M20.4677 7.71968C20.6084 7.57903 20.7991 7.50001 20.998 7.5C21.197 7.50001 21.3877 7.57903 21.5284 7.71968C21.669 7.86033 21.748 8.05109 21.748 8.25V15.75C21.748 15.9489 21.669 16.1397 21.5284 16.2803C21.3877 16.421 21.197 16.5 20.998 16.5C20.7991 16.5 20.6084 16.421 20.4677 16.2803C20.3271 16.1397 20.248 15.9489 20.248 15.75V8.25C20.2481 8.05109 20.3271 7.86033 20.4677 7.71968Z" fill="var(--fill-0, white)"/>
<path id="Vector_4" d="M18.5284 14.7803C18.3877 14.921 18.197 15 17.998 15C17.7991 15 17.6084 14.921 17.4677 14.7803C17.3271 14.6397 17.2481 14.4489 17.248 14.25V9.75C17.248 9.55109 17.3271 9.36032 17.4677 9.21967C17.6084 9.07902 17.7991 9 17.998 9C18.197 9 18.3877 9.07902 18.5284 9.21967C18.669 9.36032 18.748 9.55109 18.748 9.75V14.25C18.748 14.4489 18.669 14.6397 18.5284 14.7803Z" fill="var(--fill-0, white)"/>
</g>
</svg>
