<svg preserveAspectRatio="none" width="100%" height="100%" overflow="visible" style="display: block;" viewBox="0 0 49 48" fill="none" xmlns="http://www.w3.org/2000/svg">
<g id="67b764afa33761fbd49bc155_Icon%20from%20Figma%20(12).svg" clip-path="url(#clip0_0_19)">
<path id="Vector" d="M36.666 0H12.666C6.0386 0 0.666016 5.37258 0.666016 12V36C0.666016 42.6274 6.0386 48 12.666 48H36.666C43.2934 48 48.666 42.6274 48.666 36V12C48.666 5.37258 43.2934 0 36.666 0Z" fill="var(--fill-0, #F0F7FF)"/>
<path id="Vector_2" d="M24.666 31C27.976 31 30.666 28.31 30.666 25V20C30.666 16.69 27.976 14 24.666 14C21.356 14 18.666 16.69 18.666 20V25C18.666 28.31 21.356 31 24.666 31Z" stroke="var(--stroke-0, #0720FF)" stroke-width="1.5" stroke-linecap="round" stroke-linejoin="round"/>
<path id="Vector_3" d="M15.666 23V25C15.666 29.97 19.696 34 24.666 34C29.636 34 33.666 29.97 33.666 25V23" stroke="var(--stroke-0, #0720FF)" stroke-width="1.5" stroke-linecap="round" stroke-linejoin="round"/>
<path id="Vector_4" d="M21.7754 19.48C23.5554 18.83 25.4954 18.83 27.2754 19.48" stroke="var(--stroke-0, #0720FF)" stroke-width="1.5" stroke-linecap="round" stroke-linejoin="round"/>
<path id="Vector_5" d="M22.6953 22.48C23.8953 22.15 25.1653 22.15 26.3653 22.48" stroke="var(--stroke-0, #0720FF)" stroke-width="1.5" stroke-linecap="round" stroke-linejoin="round"/>
</g>
<defs>
<clipPath id="clip0_0_19">
<rect width="49" height="48" fill="white"/>
</clipPath>
</defs>
</svg>
