<svg preserveAspectRatio="none" width="100%" height="100%" overflow="visible" style="display: block;" viewBox="0 0 24 24" fill="none" xmlns="http://www.w3.org/2000/svg">
<g id="695e3a025c3ad36d09fbc680_65f8660788afd733e97e8ab2_Unmuted-white.svg">
<path id="Vector" d="M14.5789 2.32613C14.4528 2.2645 14.312 2.23951 14.1724 2.25401C14.0328 2.26851 13.9001 2.32193 13.7894 2.40816L7.24161 7.49988H2.99949C2.60179 7.50027 2.22049 7.65843 1.93928 7.93964C1.65806 8.22086 1.4999 8.60215 1.49951 8.99985V14.9998C1.4999 15.3975 1.65806 15.7787 1.93928 16.06C2.22049 16.3412 2.60179 16.4993 2.99949 16.4997H7.24161L13.7894 21.5914C13.9001 21.6777 14.0329 21.7311 14.1725 21.7456C14.3121 21.7601 14.453 21.735 14.5791 21.6734C14.7052 21.6117 14.8115 21.5158 14.8857 21.3967C14.96 21.2776 14.9994 21.14 14.9993 20.9997V2.99995C14.9994 2.85953 14.96 2.7219 14.8857 2.60277C14.8114 2.48363 14.7051 2.38778 14.5789 2.32613Z" fill="var(--fill-0, white)"/>
<path id="Vector_2" d="M17.9995 9C17.8006 9.00001 17.6098 9.07903 17.4692 9.21968C17.3285 9.36033 17.2495 9.55109 17.2495 9.75V14.25C17.2495 14.4489 17.3285 14.6397 17.4692 14.7803C17.6098 14.921 17.8006 15 17.9995 15C18.1984 15 18.3892 14.921 18.5298 14.7803C18.6705 14.6397 18.7495 14.4489 18.7495 14.25V9.75C18.7495 9.55109 18.6705 9.36033 18.5298 9.21968C18.3892 9.07903 18.1984 9.00001 17.9995 9Z" fill="var(--fill-0, white)"/>
<path id="Vector_3" d="M20.4687 7.71968C20.6094 7.57903 20.8001 7.50001 20.999 7.5C21.1979 7.50001 21.3887 7.57903 21.5293 7.71968C21.67 7.86033 21.749 8.05109 21.749 8.25V15.75C21.749 15.9489 21.67 16.1397 21.5294 16.2803C21.3887 16.421 21.1979 16.5 20.999 16.5C20.8001 16.5 20.6093 16.421 20.4687 16.2803C20.328 16.1397 20.249 15.9489 20.249 15.75V8.25C20.249 8.05109 20.3281 7.86033 20.4687 7.71968Z" fill="var(--fill-0, white)"/>
</g>
</svg>
