<svg preserveAspectRatio="none" width="100%" height="100%" overflow="visible" style="display: block;" viewBox="0 0 55 42" fill="none" xmlns="http://www.w3.org/2000/svg">
<g id="663237a45a1e5562ee867570_g151.svg" clip-path="url(#clip0_0_34)">
<path id="Vector" d="M1.91652 30.0693L2.65515 28.9542L3.93594 29.3046L3.10027 28.2866L3.81756 27.1857L2.57705 27.671L1.71528 26.6553L1.78867 27.974L0.585938 28.4286L1.84078 28.7576L1.91652 30.0693ZM1.74128 25.1567L2.67644 24.1932L3.87201 24.7803L3.24465 23.6273L4.15611 22.6803L2.84923 22.9218L2.19822 21.757L2.02538 23.0663L0.747005 23.2864L1.91652 23.8498L1.74128 25.1567ZM2.51308 20.2916L3.61161 19.534L4.67697 20.3295L4.27449 19.0747L5.36115 18.3242L4.02586 18.3077L3.61161 17.0434L3.18543 18.3029L1.89036 18.2721L2.93214 19.0416L2.51308 20.2916ZM8.02457 11.1887L8.71115 12.3275L8.80589 11.0254L10.0914 10.7199L8.8674 10.211L8.95502 8.88754L8.09571 9.89133L6.90244 9.37529L7.57715 10.4832L6.72014 11.48L8.02457 11.1887ZM23.8914 3.39964L24.8762 2.52845L26.0055 3.20787L25.4728 1.98154L26.4577 1.09136L25.1437 1.2121L24.6466 0.018883L24.3554 1.28078L23.0486 1.41098L24.1897 2.09751L23.8914 3.39964ZM5.05817 39.345L5.32328 38.0335L6.64193 37.8748L5.489 37.2451L5.73758 35.9595L4.7692 36.8685L3.59262 36.2531L4.16082 37.4464L3.21143 38.3246L4.49462 38.1589L5.05817 39.345ZM11.3225 7.80083L11.7818 9.05085L12.1274 7.78184L13.4437 7.73685L12.3357 7.00293L12.679 5.71262L11.6444 6.52946L10.5695 5.80736L11.0147 7.02427L9.98952 7.83635L11.3225 7.80083ZM15.2146 5.08772L15.4206 6.40167L16.0102 5.22268L17.3099 5.43104L16.3581 4.49587L16.9406 3.2979L15.7592 3.90403L14.8501 2.9902L15.0631 4.26393L13.896 4.87471L15.2146 5.08772ZM19.5021 4.49582L20.2976 3.44939L21.5404 3.89921L20.7852 2.80068L21.5831 1.74007L20.3117 2.10227L19.5944 1.03455L19.5565 2.32957L18.2922 2.69647L19.547 3.16288L19.5021 4.49582ZM2.71432 33.5969L3.03634 34.8705L3.54774 33.6277L4.88062 33.7248L3.86265 32.8889L4.35505 31.6721L3.23288 32.3822L2.19351 31.5489L2.52019 32.8321L1.41936 33.5092L2.71432 33.5969ZM4.2011 15.6869L5.42513 15.1447L6.3129 16.1367L6.16141 14.8299L7.36168 14.2972L6.06196 14.032L5.89624 12.7086L5.23566 13.8568L3.97381 13.5822L4.84505 14.5434L4.2011 15.6869ZM42.3316 7.63511L42.6726 8.90401L43.1483 7.66351L44.4741 7.69909L43.4444 6.87283L43.9131 5.6678L42.8265 6.38043L41.8037 5.55653L42.1398 6.84913L41.0199 7.576L42.3316 7.63511ZM44.4078 10.5329L45.6887 10.8336L45.7762 12.1475L46.4723 11.0135L47.7721 11.3094L46.9174 10.3009L47.6063 9.20711L46.4084 9.69716L45.5536 8.69812L45.6412 10.031L44.4078 10.5329ZM38.4347 5.11136L39.0101 6.28805L39.2327 4.98357L40.5465 4.77286L39.3793 4.15491L39.6043 2.88359L38.6786 3.79265L37.5115 3.18187L38.0868 4.38691L37.1373 5.3126L38.4347 5.11136ZM48.3735 14.6239L48.2148 15.9236L49.1192 14.9458L50.3336 15.4832L49.6826 14.3303L50.5704 13.3904L49.2991 13.6485L48.6505 12.4931L48.4846 13.8189L47.1825 14.0722L48.3735 14.6239ZM32.8806 3.82106L34.1258 3.3784L34.9144 4.43666L34.8789 3.09912L36.1336 2.64689L34.8669 2.26334L34.8433 0.968384L34.1071 2.03605L32.8498 1.65491L33.6476 2.7321L32.8806 3.82106ZM52.8764 27.7325L52.9686 26.4163L52.0952 27.4414L50.8617 26.9371L51.5695 28.0403L50.7243 29.0536L52.0122 28.7222L52.739 29.8373L52.8242 28.5186L54.079 28.2086L52.8764 27.7325ZM51.9933 33.3576L53.2883 33.296L52.2016 32.593L52.5307 31.3241L51.4843 32.1596L50.3691 31.4305L50.8569 32.6592L49.827 33.4832L51.1599 33.405L51.6618 34.6361L51.9933 33.3576ZM49.4316 37.8156L49.6826 39.1272L50.2603 37.9364L51.5411 38.121L50.6011 37.2284L51.1765 36.0447L49.988 36.6626L49.0244 35.7347L49.2683 37.0202L48.1129 37.6404L49.4316 37.8156ZM16.8932 29.5389C16.7914 29.4561 15.5413 30.7275 14.7245 31.6151C14.4358 31.923 14.2486 32.2142 14.1374 32.3515C14.1374 32.3515 13.7775 32.9457 13.5858 33.1967C13.3916 33.4477 12.911 34.1555 12.698 34.4634C12.6245 34.5651 12.4352 35.0126 12.0635 35.4766C11.8788 35.7085 11.6918 36.0116 11.3296 36.4757C10.8466 37.0959 10.482 37.6049 10.5649 37.6737C10.6122 37.7067 11.3225 36.8474 12.0847 35.9241C12.402 35.5382 12.7453 35.1428 13.0365 34.7663C13.1785 34.5841 13.5053 34.2787 13.6119 34.1224C13.7988 33.8453 14.0025 33.6347 14.083 33.5683C14.5067 33.2228 14.7459 33.1968 14.8832 33.0003C14.9471 32.9033 15.7875 31.639 16.0929 31.1252C16.3722 30.6399 17.0611 29.6904 16.8932 29.5389ZM52.4359 21.5274L51.7778 22.6899L50.4732 22.4342L51.38 23.393L50.748 24.5364L51.946 23.9682L52.8691 24.9223L52.7059 23.606L53.8801 23.0662L52.6016 22.8294L52.4359 21.5274ZM49.228 18.0875L50.3005 18.8474L49.8933 20.1021L50.9588 19.309L52.0596 20.0737L51.6382 18.8142L52.6869 18.0567L51.3967 18.0685L50.9775 16.8184L50.5586 18.0851L49.228 18.0875ZM28.4062 3.17716L29.5425 2.50716L30.5179 3.38076L30.2315 2.08334L31.3654 1.40392L30.0516 1.26661L29.7863 0L29.2656 1.1861L27.9588 1.06061L28.9482 1.95554L28.4062 3.17716ZM28.5766 26.2575C28.6998 26.6199 29.1568 28.7553 29.2892 29.198C29.4264 29.6384 29.5638 29.6621 29.6397 29.8348C29.9047 30.5001 30.2858 30.5261 30.4824 30.5806C31.0317 30.7487 31.0766 31.4849 31.427 32.1431C31.7537 32.7587 32.0616 33.3126 32.3504 33.9849C32.6392 34.6573 34.1165 38.2986 34.3699 38.8525C34.455 39.0537 35.1581 39.0537 35.0823 38.8525C34.9049 38.4524 34.5 37.4464 34.249 36.4425C34.0905 35.7915 34.699 36.253 34.3105 35.209C34.1306 34.7308 33.7898 34.2549 33.5981 34.0607C33.4015 33.869 33.2121 33.0427 33.0629 32.6733C32.9044 32.3134 32.9847 32.2946 32.6582 31.4257C32.4142 30.7912 33.0985 31.0043 32.715 30.0265C32.4664 29.3897 31.2022 27.0886 31.0554 26.8518C30.9843 26.7215 30.7406 26.3238 30.4398 25.8527C30.1557 25.4053 29.9214 24.927 29.7864 24.7186C29.5236 24.2973 29.0407 23.3739 28.7684 22.9904C28.4986 22.6045 28.1623 21.7569 28.0227 21.8991C27.8854 22.0245 28.4298 23.2958 28.6524 24.1055C28.8868 24.9129 28.7163 25.242 28.5767 25.4715C28.4464 25.6989 28.4464 25.8504 28.5766 26.2575ZM37.1539 32.8485C37.5257 33.4666 37.6251 33.3434 37.779 33.3506C38.1294 33.3601 38.913 34.2029 39.0693 34.4325C39.2184 34.6645 40.4802 35.9217 40.8046 36.2295C40.9466 36.3643 41.9458 37.9789 42.0735 37.8631C42.2085 37.747 41.6901 36.9634 41.6119 36.7881C41.541 36.6177 41.2521 36.3643 41.1123 35.9975C40.9821 35.6376 40.3879 34.7308 40.1939 34.4445C40.0019 34.1555 39.6895 33.5162 39.3485 33.1115C39.0337 32.7563 39.2847 32.6593 38.9604 32.3469C38.7638 32.1622 38.1531 31.6199 38.0157 31.5063C37.8856 31.3879 37.386 30.9453 37.0996 30.6967C36.8153 30.4552 36.1336 29.9816 36.1573 29.6787C36.1666 29.3684 36.0175 28.7791 35.7879 28.5825C35.6221 28.4405 35.1345 27.6545 34.5759 27.1999C34.2941 26.9631 33.6927 26.3382 33.2288 25.796C32.7954 25.2799 32.4688 24.8087 32.3693 24.875C32.2225 24.9698 32.8737 25.8788 32.9398 25.9879C33.0085 26.0919 33.7614 27.394 33.8324 27.7349C33.9106 28.0807 35.3145 30.4433 35.6151 31.1772C35.7879 31.6057 36.7491 32.1787 37.1539 32.8485ZM43.2856 35.1333C43.3329 35.0765 43.198 34.9012 43.1247 34.7687C43.0441 34.6361 42.566 34.1058 42.4759 33.9567C42.3979 33.817 41.7776 32.9339 41.5596 32.6451C41.1716 32.1478 41.5266 31.9655 41.3229 31.6579C41.2401 31.5229 40.743 30.9239 40.1652 30.3321C39.867 30.036 39.5355 29.7496 39.2539 29.4962C38.7969 29.0891 38.4513 28.7861 38.3946 28.8358C38.314 28.9163 38.5838 29.2406 38.6999 29.3897C38.8158 29.5317 38.9981 29.7945 39.2397 30.081C39.6303 30.5475 39.268 30.9001 39.642 31.2718C39.7035 31.3334 40.7358 32.4886 40.9893 32.7019C41.3656 33.038 42.7103 34.6337 42.805 34.7212C42.9637 34.8704 43.2406 35.1901 43.2856 35.1333ZM22.0021 27.5597C22.0779 27.3987 22.3122 26.9016 22.3004 26.7027C22.3004 26.6672 22.2128 26.6056 22.1394 26.6789C21.7937 27.02 21.0907 28.2368 20.8231 28.3741C20.2218 28.6652 19.959 29.3709 19.779 29.6501C19.6512 29.8561 19.4855 30.1899 19.199 30.6091C18.948 30.9713 18.6616 31.5134 18.555 31.7004C18.4509 31.8969 18.413 32.0768 18.6071 32.0768C18.8012 32.0768 18.6498 32.3941 18.413 32.7421C18.278 32.9457 17.9443 33.9211 17.8472 34.1862C17.7193 34.5129 17.7383 34.9296 17.6933 35.0693C17.6483 35.1996 17.0115 36.5561 16.8457 36.8568C16.7416 37.0462 16.7723 37.1219 16.732 37.2261C16.6729 37.3563 16.7463 37.3942 16.8457 37.2995C16.9665 37.1787 17.6483 36.144 17.8566 36.0211C18.0602 35.8932 18.2472 35.7039 18.278 35.2587C18.3088 34.8137 18.5977 34.6929 18.8131 34.4325C19.038 34.1744 19.3339 33.8288 19.4925 33.4666C19.6416 33.0926 19.8335 33.3766 20.1791 32.8203C20.5247 32.2593 21.3013 30.8766 21.4789 30.6091C21.6493 30.3414 21.5238 29.9556 21.5025 29.636C21.493 29.468 21.5167 29.0536 21.6162 28.6133C21.7157 28.2203 21.8979 27.8201 22.0021 27.5597ZM24.9757 16.9961C25.2621 16.9961 25.6812 16.4728 25.9084 16.0184C26.1429 15.5259 26.2612 15.2489 26.5548 14.6192C26.5666 14.586 26.5382 14.586 26.5074 14.586C26.1736 14.586 25.8066 14.927 25.5723 15.2015C25.2953 15.5425 24.8407 16.1841 24.772 16.6457C24.7223 16.8943 24.8312 16.9961 24.9757 16.9961ZM32.3716 17.4388C32.6984 17.6045 33.1033 16.8848 33.456 16.229C33.8063 15.5685 34.0857 14.7493 33.7898 14.6475C33.456 14.5126 33.0322 15.1565 32.6794 15.8147C32.3313 16.4728 32.0664 17.292 32.3716 17.4388ZM19.7364 16.9961C20.0299 16.9961 20.4396 16.4728 20.6763 16.0184C20.9084 15.5259 21.0315 15.2489 21.3155 14.6192C21.3298 14.586 21.3013 14.586 21.2753 14.586C20.9391 14.586 20.5721 14.927 20.3402 15.2015C20.0631 15.5425 19.6039 16.1841 19.5352 16.6457C19.4855 16.8943 19.6039 16.9961 19.7364 16.9961ZM16.5262 11.0466C18.7989 11.1531 20.1365 12.2682 20.1365 13.4638C20.1342 15.6017 16.744 15.9662 16.744 15.9662C16.1544 18.928 13.8059 20.0572 12.1795 20.0407C9.99664 20.0241 10.0298 18.2556 10.1033 18.0283C10.1955 17.7654 10.3304 17.5264 10.6051 17.5264C10.8774 17.5264 11.1047 17.7489 11.1047 18.0283C11.1047 18.1964 11.0218 18.355 10.8774 18.4379C10.5909 18.6155 10.6453 18.838 10.6453 18.838C10.6453 19.7779 11.8599 19.8512 12.1795 19.8512C15.43 19.8512 15.056 14.496 17.923 12.6754C18.0532 12.5879 18.155 12.6754 18.0745 12.7654C17.1796 13.8876 16.8434 15.6963 16.8434 15.6963C18.2261 15.6963 19.1399 14.38 19.1399 13.4638C19.1399 11.8942 17.7265 11.2431 16.5262 11.2431C13.1786 11.2431 11.7249 13.5822 11.7249 14.8559C11.7249 16.1319 12.5299 16.5936 13.1123 16.5936C13.9244 16.5936 14.1777 16.0515 14.0783 15.7863C13.9172 15.3697 14.1398 15.0216 14.3908 15.0216C14.4902 15.0216 14.8241 15.0051 14.8241 15.5922C14.8241 16.158 14.0215 16.7286 13.1336 16.7286C12.2577 16.7286 10.9769 16.2551 10.9769 14.8559C10.9768 12.0197 14.4665 10.9424 16.5262 11.0466ZM22.1631 14.5126C21.8009 15.3318 21.5334 15.9189 21.1995 16.6931C21.1711 16.7665 21.1451 16.8943 21.2138 16.9416C21.2753 16.97 21.3464 16.97 21.3865 16.9416C21.8151 16.7357 22.1915 16.2361 22.4875 15.6679L23.0153 14.5031H23.7587L23.5551 14.9434C23.5384 14.9671 23.5384 14.9813 23.5551 14.9671C23.7871 14.7919 24.031 14.5291 24.3293 14.3658C24.4453 14.3113 24.7223 14.3113 24.6938 14.5031C24.6796 14.6735 24.5494 14.8038 24.4761 14.9671C24.4334 15.0713 24.3884 15.2015 24.4027 15.2725C24.4334 15.3506 24.5186 15.3932 24.6347 15.3056C24.7507 15.2322 24.8407 15.173 24.9472 15.0855C25.1318 14.9055 25.3662 14.7374 25.629 14.5978C26.157 14.3539 26.8743 14.1953 27.3999 14.5291C27.0329 15.3506 26.7559 15.9615 26.4055 16.7356C26.3416 16.8682 26.3937 16.9108 26.4363 16.9416C26.4813 16.97 26.5665 16.9841 26.6848 16.9203C26.9736 16.7996 27.4851 16.229 27.6886 15.7863C27.8828 15.3744 28.058 14.9671 28.264 14.5031H29.0287L28.8155 14.9529L28.8463 14.9672C29.05 14.7801 29.5827 14.354 29.9756 14.444C30.1935 14.4889 30.3 14.7493 30.2835 14.9435C30.532 14.7612 30.7877 14.5434 31.1571 14.4534C31.6849 14.3232 31.8909 14.6901 31.7276 15.043C31.5217 15.526 31.1144 16.4729 30.88 16.9606C30.8516 17.0104 30.8516 17.1193 30.88 17.143C30.9392 17.1903 31.0435 17.143 31.0884 17.1193C31.3511 16.8943 31.4957 16.7499 31.6991 16.4611C31.7559 15.9497 32.0329 15.4786 32.4166 15.0856C32.8237 14.6334 33.4676 14.2807 34.0856 14.489C34.301 14.56 34.4478 14.7802 34.507 14.998C34.5354 15.114 34.5638 15.1732 34.5638 15.3058C34.8882 15.5426 35.3119 15.1567 35.4849 14.8678C35.5322 14.7494 35.5914 14.6192 35.6197 14.5292C35.8044 14.5434 36.1665 14.5292 36.382 14.5292L35.4279 16.7097C35.3665 16.8375 35.3522 16.9109 35.3522 17.0104C35.3522 17.0909 35.4398 17.1051 35.5322 17.0909C35.7949 17.0435 36.2233 16.5274 36.4388 16.0942C36.6803 15.552 36.9195 15.0998 37.1563 14.56H37.928C37.6202 15.2892 37.2721 16.0658 37.0212 16.634C36.9621 16.7499 36.8935 16.8683 36.9313 17.0293C36.962 17.1051 37.0639 17.0908 37.1277 17.0624C37.4615 16.8683 38.0369 16.2291 38.2358 15.8337C38.4441 15.365 38.5979 15.0146 38.8158 14.56H39.6089L39.4195 15.0146C39.7154 14.7802 40.0326 14.5292 40.4139 14.4677C40.589 14.444 40.8069 14.4534 40.9087 14.6334C41.0271 14.837 40.956 15.0524 40.8684 15.2489C40.6506 15.7461 40.3972 16.2859 40.1795 16.7665C40.1392 16.8848 40.1274 16.9962 40.2055 17.0435C40.3263 17.1193 40.8801 16.7807 41.1619 16.1652C41.4059 15.6254 41.5716 15.3057 41.7893 14.7802H41.3822L41.4958 14.5434H41.9053L42.49 13.2721H43.2787L42.7104 14.5434H43.3047L43.1933 14.7802H42.6085C42.2724 15.4928 41.9906 16.0941 41.6971 16.7665C41.5835 16.9962 41.4651 17.3821 41.5266 17.6164C41.5717 17.7467 41.7326 17.7798 41.8794 17.7301C42.3292 17.5738 42.637 17.1903 42.8997 16.7807C42.914 16.7357 43.153 16.7665 43.1341 16.7996C42.8239 17.4104 42.1541 18.0284 41.5124 18.0118C41.3207 18.0118 41.1123 17.8934 40.9987 17.73C40.9444 17.6448 40.9088 17.5738 40.8803 17.472C40.84 17.3063 40.852 17.1192 40.8803 16.9417C40.5323 17.2069 40.1985 17.5264 39.7582 17.6164C39.5663 17.6448 39.3202 17.5738 39.2752 17.3678C39.2468 17.2069 39.2609 17.0292 39.3203 16.8848C39.5972 16.2859 39.8434 15.7461 40.1061 15.114C40.1275 15.0856 40.1061 14.9814 40.0754 14.9672C40.0327 14.927 39.9026 14.927 39.7866 15.0146C39.2468 15.4218 38.9698 15.9497 38.7378 16.4894C38.5721 16.8517 38.3947 17.2186 38.2217 17.5738H37.4452C37.5352 17.356 37.6654 17.0624 37.7672 16.8257C37.7672 16.8115 37.753 16.8115 37.753 16.8257C37.4335 17.143 37.0214 17.5075 36.6167 17.6164C36.4532 17.659 36.2898 17.6046 36.207 17.4507C36.1146 17.3063 36.0886 17.0909 36.1667 16.8944C36.1667 16.8849 36.1597 16.8849 36.1432 16.8944C35.8543 17.1903 35.5727 17.4507 35.1842 17.5857C34.7416 17.7206 34.3439 17.4105 34.6232 16.7665C34.6991 16.5936 34.9191 16.1083 35.1607 15.526C34.9594 15.6088 34.7132 15.6088 34.5807 15.5685C34.564 15.5685 34.564 15.5685 34.564 15.5828C34.3935 16.3995 33.9082 17.143 33.1625 17.498C32.7979 17.6756 32.3836 17.7206 32.0214 17.472C31.8462 17.356 31.742 17.0719 31.7278 16.8256C31.3514 17.2068 30.9228 17.6874 30.3405 17.6045C30.2528 17.5856 30.1795 17.5075 30.1345 17.427C30.0019 17.2069 30.0799 16.9701 30.1629 16.7806C30.4423 16.1983 30.6719 15.6537 30.9513 14.9979C30.9962 14.9056 30.8707 14.8393 30.7808 14.882C30.5038 15.0146 30.3333 15.1471 30.1795 15.3838C30.0966 15.5117 30.0137 15.6585 29.9474 15.7981C29.6893 16.3592 29.4195 16.9416 29.1851 17.5074H28.392C28.7472 16.7096 29.081 15.933 29.4313 15.1447C29.4645 15.0713 29.4456 14.9672 29.4029 14.9435C29.3342 14.9056 29.2089 14.9672 29.1282 15.0146C28.9388 15.1448 28.7708 15.3176 28.6453 15.5425C28.5128 15.7603 28.3921 15.9781 28.2997 16.2149L27.7079 17.5075H26.9336C27.0094 17.3371 27.1538 16.9962 27.2414 16.8257C27.2414 16.8115 27.2272 16.7997 27.2272 16.8115C26.8034 17.1619 26.2613 17.6164 25.8659 17.5407C25.7333 17.5264 25.6197 17.4105 25.5889 17.2921C25.5606 17.143 25.5724 17.0104 25.6032 16.8849C25.6032 16.8683 25.5889 16.8683 25.5724 16.8849C25.2338 17.2069 24.9308 17.472 24.5046 17.5738C24.2608 17.6283 24.0312 17.472 23.953 17.2921C23.8441 17.0909 23.8181 16.7666 23.9932 16.3996C24.0974 16.1652 24.2111 15.919 24.3554 15.7154C24.2702 15.7604 24.0974 15.7745 23.979 15.7604C23.8796 15.7462 23.7731 15.668 23.721 15.5923C23.6594 15.526 23.6452 15.3934 23.6452 15.3058C23.6594 15.2893 23.6145 15.2893 23.5836 15.3058C23.3517 15.4929 23.2475 15.7154 23.1315 15.9617L22.4591 17.4839H21.6684L21.9597 16.8376C21.9739 16.8257 21.9597 16.8116 21.9454 16.8257C21.5335 17.1903 21.0411 17.6046 20.6433 17.5265C20.5296 17.5076 20.4089 17.3939 20.3805 17.2803C20.3521 17.143 20.3639 16.9962 20.3805 16.8683H20.3521C20.0301 17.1903 19.7224 17.4507 19.3033 17.5407C19.0642 17.6164 18.8488 17.472 18.7564 17.2684C18.6404 16.9701 18.683 16.6671 18.7872 16.3853C19.0902 15.5922 19.6513 15.0264 20.4089 14.598C20.8894 14.3232 21.6375 14.2403 22.1631 14.5126ZM5.16467 26.7618C5.16467 30.1071 6.05249 33.8761 7.63631 36.968C10.4986 34.2975 18.0082 25.822 18.87 24.8372C20.1792 23.3386 20.745 24.2926 21.4482 23.4545C21.8246 22.9952 22.0447 22.8201 22.2104 22.7277C22.4804 22.5668 22.7882 22.1833 22.942 22.0695C23.0959 21.9536 23.4439 21.4919 23.7138 21.2599C23.9861 21.0303 24.5188 20.6823 25.061 20.2229C25.6008 19.7589 26.5193 18.6841 27.5207 18.6841C28.7115 18.6841 29.2088 19.4914 29.3153 19.5885C29.4005 19.6809 30.1345 20.3295 30.2528 20.4526C30.3829 20.5994 31.169 21.2197 31.5951 21.2197C32.0165 21.2197 32.3292 21.6813 32.5563 21.911C33.0606 22.3702 35.1439 24.5601 35.8282 25.0242C36.1336 25.2348 36.4224 25.197 36.6496 25.3746C36.8841 25.5473 37.0001 25.6588 37.1326 25.6989C37.2605 25.7345 37.7079 25.6207 38.2288 26.2719C38.4703 26.4376 38.5342 26.4661 38.5342 26.4661C38.5342 26.4661 39.242 27.1076 39.4955 27.5597C39.725 27.9504 45.0021 34.9605 46.8913 37.4677C48.6432 34.2906 49.6447 30.6399 49.6447 26.7572C49.6447 14.4677 39.6824 4.51716 27.4 4.51716C15.1175 4.52422 5.16467 14.4794 5.16467 26.7618Z" fill="var(--fill-0, #BDBDBD)"/>
<path id="Vector_2" d="M45.5977 40.4375V40.6862H46.0782V42.0025H46.3836V40.6862H46.8619V40.4375H45.5977ZM48.4812 40.4375L48.0574 41.5479L47.6218 40.4375H47.1838V42.0026H47.468V40.7785H47.475L47.9485 42.0026H48.1592L48.6233 40.7785H48.6352V42.0026H48.917V40.4375H48.4812Z" fill="var(--fill-0, #BDBDBD)"/>
</g>
<defs>
<clipPath id="clip0_0_34">
<rect width="55" height="42" fill="white"/>
</clipPath>
</defs>
</svg>
