<svg preserveAspectRatio="none" width="100%" height="100%" overflow="visible" style="display: block;" viewBox="0 0 92 40" fill="none" xmlns="http://www.w3.org/2000/svg">
<g id="663237f7f637c6bc48304162_Group.svg" clip-path="url(#clip0_0_57)">
<path id="Vector" d="M30.0749 7.97272H2.77935V2.91414H30.0749V7.97272ZM32.0251 0.960938H0.828125V9.92098H32.0251V0.960938Z" fill="var(--fill-0, #BDBDBD)"/>
<path id="Vector_2" d="M2.77825 24.7344H0.828125V15.7719H2.77825V19.3124H6.2625V15.7719H8.21262V24.7344H6.2625V21.0214H2.77825V24.7344Z" fill="var(--fill-0, #BDBDBD)"/>
<path id="Vector_3" d="M11.1853 20.7801H13.5081C13.4649 20.1212 13.1929 19.662 12.4326 19.662C11.859 19.662 11.3571 19.9061 11.1853 20.7801ZM12.662 24.8516C10.6834 24.8516 9.33594 23.6042 9.33594 21.5552C9.33594 19.5618 10.655 18.1859 12.4042 18.1859C14.3111 18.1859 15.2574 19.4617 15.2574 21.3685V22.0855H11.1853C11.4152 23.0739 12.1891 23.3316 12.9636 23.3316C13.6373 23.3316 14.1244 23.1889 14.7264 22.8155H14.7987V24.2922C14.2826 24.6655 13.5508 24.8516 12.662 24.8516Z" fill="var(--fill-0, #BDBDBD)"/>
<path id="Vector_4" d="M20.3318 20.9788L19.328 24.7344H17.622L15.6719 18.4297V18.358H17.5361L18.5967 22.1284L19.6005 18.358H21.1205L22.1385 22.1284L23.214 18.358H25.0065V18.4297L23.0564 24.7344H21.3498L20.3318 20.9788Z" fill="var(--fill-0, #BDBDBD)"/>
<path id="Vector_5" d="M28.1482 24.8359C26.5998 24.8359 25.9688 24.2197 25.9688 22.7721V15.7319H27.8614V22.6423C27.8614 23.0867 28.0332 23.2443 28.4059 23.2443C28.5351 23.2443 28.7218 23.2017 28.8361 23.1584H28.8652V24.721C28.7076 24.7778 28.435 24.8359 28.1482 24.8359Z" fill="var(--fill-0, #BDBDBD)"/>
<path id="Vector_6" d="M31.2634 20.7801H33.5863C33.543 20.1212 33.271 19.662 32.5108 19.662C31.9378 19.662 31.4353 19.9061 31.2634 20.7801ZM32.7401 24.8516C30.7615 24.8516 29.4141 23.6042 29.4141 21.5552C29.4141 19.5618 30.7331 18.1859 32.4823 18.1859C34.3892 18.1859 35.3355 19.4617 35.3355 21.3685V22.0855H31.2634C31.4927 23.0739 32.2672 23.3316 33.0411 23.3316C33.7155 23.3316 34.2025 23.1889 34.8052 22.8155H34.8769V24.2922C34.3608 24.6655 33.6295 24.8516 32.7401 24.8516Z" fill="var(--fill-0, #BDBDBD)"/>
<path id="Vector_7" d="M43.1289 18.3606H44.5339V19.8799H43.1289V22.4747C43.1289 23.0341 43.344 23.2924 43.9176 23.2924C44.0752 23.2924 44.2761 23.2776 44.4912 23.2059H44.5339V24.6968C44.2903 24.7833 43.9176 24.8828 43.3731 24.8828C41.8383 24.8828 41.2363 24.1806 41.2363 22.5606V19.8799H38.8133V22.4747C38.8133 23.0341 39.0284 23.2924 39.6014 23.2924C39.7596 23.2924 39.9605 23.2776 40.1756 23.2059H40.2183V24.6968C39.9747 24.7833 39.6014 24.8828 39.0575 24.8828C37.5227 24.8828 36.9207 24.1806 36.9207 22.5606V19.8799H35.9453V18.3606H36.9207V16.612H38.8133V18.3606H41.2363V16.612H43.1289V18.3606Z" fill="var(--fill-0, #BDBDBD)"/>
<path id="Vector_8" d="M50.8929 20.1368C51.8831 20.1368 52.3554 19.578 52.3554 18.7751C52.3554 17.9431 51.8831 17.3844 50.8929 17.3844H49.6598V20.1368H50.8929ZM54.3345 18.7751C54.3345 20.7252 53.0297 21.7853 51.0506 21.7853H49.6598V24.6953H47.7109V15.7328H51.0506C53.0297 15.7328 54.3345 16.7935 54.3345 18.772" fill="var(--fill-0, #BDBDBD)"/>
<path id="Vector_9" d="M58.5096 22.7062V22.1616C58.2228 22.0046 57.8507 21.9471 57.4632 21.9471C56.8469 21.9471 56.4742 22.1758 56.4742 22.692C56.4742 23.2229 56.8469 23.4522 57.4057 23.4522C57.936 23.4522 58.3378 23.1796 58.5096 22.7062ZM58.5671 24.0827C58.1511 24.5846 57.5355 24.8281 56.8747 24.8281C55.628 24.8281 54.6094 24.0691 54.6094 22.7204C54.6094 21.4737 55.628 20.6423 57.0898 20.6423C57.5485 20.6423 58.0226 20.714 58.5096 20.8568V20.7431C58.5096 20.0545 58.1227 19.7541 57.1053 19.7541C56.4594 19.7541 55.8431 19.9395 55.3122 20.2412H55.2411V18.7212C55.7281 18.4351 56.5892 18.1909 57.4341 18.1909C59.3558 18.1909 60.4023 19.1082 60.4023 20.714V24.7132H58.5671V24.0827Z" fill="var(--fill-0, #BDBDBD)"/>
<path id="Vector_10" d="M61.3281 21.5183C61.3281 19.4681 62.777 18.1781 64.6696 18.1781C65.3433 18.1781 65.9738 18.3215 66.4473 18.6652V20.2852H66.375C65.959 19.97 65.4719 19.7833 64.9131 19.7833C63.9668 19.7833 63.2498 20.4292 63.2498 21.5183C63.2498 22.6074 63.9668 23.2385 64.9131 23.2385C65.4719 23.2385 65.959 23.0519 66.375 22.736H66.4473V24.3561C65.9738 24.7003 65.3433 24.8438 64.6696 24.8438C62.777 24.8438 61.3281 23.5686 61.3281 21.5183Z" fill="var(--fill-0, #BDBDBD)"/>
<path id="Vector_11" d="M69.5326 21.8157V24.7109H67.6406V15.7484H69.5326V20.8515L71.4401 18.3284H73.5905V18.4001L71.2967 21.2959L73.5905 24.6361V24.7078H71.4253L69.5326 21.8126" fill="var(--fill-0, #BDBDBD)"/>
<path id="Vector_12" d="M77.841 22.7062V22.1616C77.5548 22.0046 77.1815 21.9471 76.7946 21.9471C76.1783 21.9471 75.8056 22.1758 75.8056 22.692C75.8056 23.2229 76.1783 23.4522 76.7365 23.4522C77.268 23.4522 77.6692 23.1796 77.841 22.7062ZM77.8985 24.0827C77.4825 24.5846 76.8657 24.8281 76.2068 24.8281C74.9588 24.8281 73.9414 24.0691 73.9414 22.7204C73.9414 21.4737 74.9588 20.6423 76.4225 20.6423C76.8811 20.6423 77.3533 20.714 77.841 20.8568V20.7431C77.841 20.0545 77.4541 19.7541 76.4361 19.7541C75.7914 19.7541 75.1739 19.9395 74.6436 20.2412H74.5719V18.7212C75.0596 18.4351 75.92 18.1909 76.7655 18.1909C78.6878 18.1909 79.7343 19.1082 79.7343 20.714V24.7132H77.8985V24.0827Z" fill="var(--fill-0, #BDBDBD)"/>
<path id="Vector_13" d="M82.9367 19.3481C83.2804 18.6453 83.7829 18.2442 84.4857 18.2442C84.7434 18.2442 85.0012 18.3016 85.1007 18.3591V20.1652H85.0296C84.8145 20.0787 84.5568 20.0218 84.1983 20.0218C83.6105 20.0218 83.1518 20.3661 82.9936 21.025V24.6953H81.1016V18.3165H82.9367V19.3481Z" fill="var(--fill-0, #BDBDBD)"/>
<path id="Vector_14" d="M90.1063 22.5592V20.5089C89.7911 20.0503 89.3757 19.85 88.9017 19.85C88.0709 19.85 87.5115 20.4527 87.5115 21.5418C87.5115 22.6309 88.0709 23.2187 88.9017 23.2187C89.3757 23.2187 89.7911 23.0178 90.1063 22.5592ZM90.1632 24.0649C89.7621 24.581 89.131 24.8672 88.2712 24.8672C86.6363 24.8672 85.5898 23.3769 85.5898 21.5418C85.5898 19.7066 86.6363 18.2015 88.2712 18.2015C89.1025 18.2015 89.7046 18.4599 90.1063 18.9328V15.765H91.999V24.7213H90.1632V24.0624" fill="var(--fill-0, #BDBDBD)"/>
<path id="Vector_15" d="M0.851562 27.6506H6.38607V28.7397H2.0989V31.4773H5.98431V32.5385H2.0989V35.5203H6.38607V36.6094H0.851562V27.653" fill="var(--fill-0, #BDBDBD)"/>
<path id="Vector_16" d="M10.938 30.173C12.3571 30.173 13.1458 31.1052 13.1458 32.6381V36.6094H11.956V32.6671C11.956 31.85 11.54 31.2621 10.6369 31.2621C9.89151 31.2621 9.26042 31.7356 9.04532 32.4087V36.6094H7.85547V30.3047H9.04532V31.222C9.41804 30.6342 10.0491 30.1755 10.938 30.1755" fill="var(--fill-0, #BDBDBD)"/>
<path id="Vector_17" d="M16.3304 30.2746H17.9504V31.2926H16.3304V34.6897C16.3304 35.4061 16.7031 35.6503 17.3768 35.6503C17.5629 35.6503 17.7637 35.6218 17.9071 35.5644H17.9504V36.5818C17.7786 36.6535 17.5344 36.7109 17.205 36.7109C15.7277 36.7109 15.1405 36.0366 15.1405 34.8047V31.2926H14.0508V30.2746H15.1405V28.5983H16.3304V30.2746Z" fill="var(--fill-0, #BDBDBD)"/>
<path id="Vector_18" d="M19.9402 32.8426H23.0801C23.0375 31.9111 22.5782 31.1947 21.6035 31.1947C20.7004 31.1947 20.112 31.8684 19.9402 32.8426ZM21.8186 36.7422C19.9686 36.7422 18.707 35.5091 18.707 33.5311C18.707 31.5526 19.8827 30.1767 21.5893 30.1767C23.3243 30.1767 24.2273 31.424 24.2273 33.2728V33.8179H19.8969C20.0261 35.0937 20.8438 35.71 21.9762 35.71C22.679 35.71 23.1803 35.5523 23.7396 35.1364H23.7829V36.1834C23.2668 36.5846 22.5924 36.7422 21.8186 36.7422Z" fill="var(--fill-0, #BDBDBD)"/>
<path id="Vector_19" d="M26.8617 31.2614C27.1343 30.5876 27.737 30.1865 28.4243 30.1865C28.6975 30.1865 28.941 30.2291 29.0412 30.2866V31.4616H28.9985C28.8261 31.3763 28.5393 31.3331 28.2525 31.3331C27.6078 31.3331 27.0626 31.7626 26.8617 32.4796V36.5938H25.6719V30.2891H26.8617V31.2638" fill="var(--fill-0, #BDBDBD)"/>
<path id="Vector_20" d="M32.8429 35.662C34.0185 35.662 34.7071 34.7305 34.7071 33.4541C34.7071 32.1932 34.0185 31.2475 32.8429 31.2475C32.1976 31.2475 31.5955 31.6344 31.2803 32.25V34.6736C31.5955 35.2892 32.1976 35.662 32.8429 35.662ZM33.0438 30.172C34.9216 30.172 35.9254 31.7061 35.9254 33.4541C35.9254 35.2039 34.9216 36.7375 33.0438 36.7375C32.2693 36.7375 31.6098 36.3363 31.2803 35.9055V39.0312H30.0898V30.3036H31.2803V31.02C31.6098 30.5756 32.2693 30.1744 33.0438 30.1744" fill="var(--fill-0, #BDBDBD)"/>
<path id="Vector_21" d="M38.5297 31.2614C38.8017 30.5876 39.4043 30.1865 40.0923 30.1865C40.3648 30.1865 40.6084 30.2291 40.7085 30.2866V31.4616H40.6659C40.494 31.3763 40.2072 31.3331 39.9204 31.3331C39.2751 31.3331 38.7306 31.7626 38.5297 32.4796V36.5938H37.3398V30.2891H38.5297V31.2638" fill="var(--fill-0, #BDBDBD)"/>
<path id="Vector_22" d="M42.4361 27.7513C42.852 27.7513 43.1957 28.0808 43.1957 28.4968C43.1957 28.9127 42.852 29.2422 42.4361 29.2422C42.0349 29.2422 41.6758 28.9127 41.6758 28.4968C41.6758 28.0808 42.0349 27.7513 42.4361 27.7513Z" fill="var(--fill-0, #BDBDBD)"/>
<path id="Vector_23" d="M41.8438 36.6065H43.0345V30.2969H41.8438V36.6065Z" fill="var(--fill-0, #BDBDBD)"/>
<path id="Vector_24" d="M47.2818 32.8978C48.1849 33.184 49.188 33.5567 49.188 34.7608C49.188 36.0514 48.1274 36.7109 46.7657 36.7109C45.9337 36.7109 45.1024 36.5101 44.6289 36.1373V35.005H44.6864C45.2173 35.492 46.0054 35.7071 46.7509 35.7071C47.4246 35.7071 48.0272 35.4488 48.0272 34.9042C48.0272 34.3454 47.526 34.2163 46.5358 33.8868C45.6469 33.6 44.658 33.2699 44.658 32.0807C44.658 30.8618 45.6611 30.1454 46.9375 30.1454C47.683 30.1454 48.3425 30.303 48.8728 30.6615V31.8087H48.8302C48.3147 31.3928 47.7114 31.1486 46.966 31.1486C46.2205 31.1486 45.8045 31.4787 45.8045 31.9231C45.8045 32.425 46.2632 32.5678 47.2818 32.8978Z" fill="var(--fill-0, #BDBDBD)"/>
<path id="Vector_25" d="M51.4362 32.8426H54.5756C54.5329 31.9111 54.0743 31.1947 53.0989 31.1947C52.1959 31.1947 51.6081 31.8684 51.4362 32.8426ZM53.314 36.7422C51.4647 36.7422 50.2031 35.5091 50.2031 33.5311C50.2031 31.5526 51.3788 30.1767 53.0847 30.1767C54.8204 30.1767 55.7228 31.424 55.7228 33.2728V33.8179H51.393C51.5222 35.0937 52.3393 35.71 53.4717 35.71C54.1751 35.71 54.6763 35.5523 55.2351 35.1364H55.2784V36.1834C54.7629 36.5846 54.0885 36.7422 53.314 36.7422Z" fill="var(--fill-0, #BDBDBD)"/>
</g>
<defs>
<clipPath id="clip0_0_57">
<rect width="92" height="40" fill="white"/>
</clipPath>
</defs>
</svg>
