<svg preserveAspectRatio="none" width="100%" height="100%" overflow="visible" style="display: block;" viewBox="0 0 20 20" fill="none" xmlns="http://www.w3.org/2000/svg">
<g id="IconFacebook">
<path id="Vector" d="M7.9867 18.0883V12.5467H6.26679V10H7.9867V8.90275C7.9867 6.0662 9.27 4.75277 12.0533 4.75277C12.5802 4.75277 13.4899 4.85602 13.8636 4.95926V7.2662C13.6667 7.2463 13.3232 7.23611 12.9001 7.23611C11.5334 7.23611 11.0066 7.75277 11.0066 9.0995V10H13.7302L13.2636 12.5463H11.0103V18.2731C15.1364 17.7732 18.3333 14.26 18.3333 10C18.3333 5.39768 14.6023 1.66667 10 1.66667C5.39768 1.66667 1.66667 5.39768 1.66667 10C1.66667 13.9082 4.35677 17.1877 7.9867 18.0883Z" fill="var(--fill-0, #5A5A5A)"/>
</g>
</svg>
