<svg preserveAspectRatio="none" width="100%" height="100%" overflow="visible" style="display: block;" viewBox="0 0 150 30.655" fill="none" xmlns="http://www.w3.org/2000/svg">
<g id="66d1a35a9f7d62b60959df89_Group%2015531.svg" clip-path="url(#clip0_0_12)">
<path id="Vector" fill-rule="evenodd" clip-rule="evenodd" d="M15.3295 30.655C6.86324 30.655 0 23.7926 0 15.3275C0 6.86235 6.86324 0 15.3295 0C20.3799 0 24.8598 2.44198 27.6527 6.20946C27.7598 6.33804 27.8652 6.4712 27.9691 6.60891C29.1779 8.21139 30.0813 10.3497 30.4533 12.8101C30.5885 13.6291 30.6589 14.4701 30.6589 15.3275C30.6589 16.2251 30.5818 17.1047 30.4336 17.96C30.0502 20.3676 29.1572 22.4605 27.9691 24.0357C27.8884 24.1428 27.8066 24.2472 27.7239 24.3488C24.9361 28.171 20.4229 30.655 15.3295 30.655ZM15.3295 28.0181C8.31968 28.0181 2.63709 22.3364 2.63709 15.3275C2.63709 8.3186 8.31968 2.63677 15.3295 2.63677C15.9445 2.63677 16.5492 2.6805 17.1409 2.76503C13.764 5.20615 11.515 9.92081 11.515 15.3364C11.515 20.741 13.7548 25.4476 17.1202 27.8928C16.5352 27.9755 15.9373 28.0181 15.3295 28.0181ZM20.4926 26.8764V3.79654C19.1773 4.25735 17.916 5.19396 16.8333 6.62231C15.221 8.74954 14.1491 11.8209 14.1491 15.3364C14.1491 18.852 15.221 21.9233 16.8333 24.0505C17.916 25.4788 19.1773 26.4155 20.4926 26.8764Z" fill="var(--fill-0, black)"/>
<path id="Vector_2" d="M33.2608 15.3223C33.2608 8.13888 29.3231 2.18886 24.0517 1.14271H35.481V29.5186H23.9648C29.2798 28.5209 33.2608 22.5451 33.2608 15.3223Z" fill="var(--fill-0, black)"/>
<path id="Vector_3" d="M42.0512 15.3294C41.9884 11.0192 45.2945 7.62961 49.6256 7.69238C53.1407 7.69238 55.9654 9.63826 56.593 12.6303L54.4171 13.1534C53.8311 10.9565 52.0526 9.72196 49.6256 9.72196C46.5497 9.72196 44.332 12.0026 44.332 15.3294C44.332 18.6563 46.5497 20.9369 49.6256 20.9369C52.0735 20.9369 53.8729 19.5978 54.438 17.108L56.6139 17.631C55.9863 20.8951 53.2244 22.9665 49.6256 22.9665C45.2945 23.0293 41.9884 19.6397 42.0512 15.3294ZM57.9024 17.108C57.9024 13.7811 60.4969 11.2494 63.9911 11.2494C67.4643 11.1866 70.1637 13.8229 70.1009 17.108C70.1637 20.3929 67.4643 23.0293 63.9911 22.9665C60.4969 22.9665 57.9024 20.4348 57.9024 17.108ZM67.9457 17.108C67.9457 14.7436 66.3137 13.1534 63.9911 13.1534C61.6896 13.1534 60.0576 14.7436 60.0576 17.108C60.0576 19.4723 61.6896 21.0625 63.9911 21.0625C66.3137 21.0625 67.9457 19.4723 67.9457 17.108ZM72.0062 22.6527V7.37854H74.1611V22.6527H72.0062ZM76.0575 17.108C76.0575 13.7811 78.652 11.2494 82.1464 11.2494C85.6197 11.1866 88.3188 13.8229 88.256 17.108C88.3188 20.3929 85.6197 23.0293 82.1464 22.9665C78.652 22.9665 76.0575 20.4348 76.0575 17.108ZM86.1008 17.108C86.1008 14.7436 84.4688 13.1534 82.1464 13.1534C79.8447 13.1534 78.2127 14.7436 78.2127 17.108C78.2127 19.4723 79.8447 21.0625 82.1464 21.0625C84.4688 21.0625 86.1008 19.4723 86.1008 17.108ZM89.3293 18.9074L91.338 18.468C91.7354 20.2674 93.0746 21.1671 95.3133 21.1671C97.2592 21.1671 98.4519 20.6021 98.4519 19.6606C98.4519 18.719 97.5941 18.2587 95.1042 17.903C91.1496 17.359 89.7686 16.4175 89.7686 14.5553C89.7686 12.5675 91.6935 11.2494 94.6019 11.2494C97.2801 11.2494 99.6865 12.7768 100.105 14.7854L98.117 15.2667C97.6987 13.9066 96.3595 13.0488 94.6019 13.0488C92.949 13.0488 91.84 13.6556 91.84 14.5134C91.84 15.3504 92.5932 15.7061 95.2714 16.1245C99.1214 16.7104 100.544 17.6729 100.544 19.6606C100.544 21.6483 98.4519 22.9665 95.3133 22.9665C92.0912 22.9665 89.706 21.3554 89.3293 18.9074ZM101.421 18.9074L103.429 18.468C103.827 20.2674 105.166 21.1671 107.405 21.1671C109.351 21.1671 110.543 20.6021 110.543 19.6606C110.543 18.719 109.685 18.2587 107.196 17.903C103.241 17.359 101.86 16.4175 101.86 14.5553C101.86 12.5675 103.785 11.2494 106.694 11.2494C109.372 11.2494 111.778 12.7768 112.196 14.7854L110.209 15.2667C109.79 13.9066 108.451 13.0488 106.694 13.0488C105.04 13.0488 103.932 13.6556 103.932 14.5134C103.932 15.3504 104.685 15.7061 107.363 16.1245C111.213 16.7104 112.636 17.6729 112.636 19.6606C112.636 21.6483 110.543 22.9665 107.405 22.9665C104.183 22.9665 101.797 21.3554 101.421 18.9074ZM114.678 27.3605L117.482 21.7948L112.377 11.5632H114.825L118.654 19.5351H118.696L122.483 11.5632H124.931L117.105 27.3605H114.678ZM125.14 19.6606C125.14 17.6729 126.5 16.6685 130.015 16.1455C132.275 15.7898 133.028 15.3922 133.028 14.639C133.028 13.6974 132.023 13.0906 130.496 13.0906C128.739 13.0906 127.504 14.0113 127.19 15.5178L125.14 15.0784C125.349 13.9276 125.935 12.986 126.897 12.2955C127.881 11.6051 129.073 11.2494 130.475 11.2494C133.425 11.2494 135.309 12.7349 135.309 15.0993V22.6527H133.279V21.3136H133.237C132.505 22.3388 130.977 22.9665 129.241 22.9665C126.709 22.9665 125.14 21.6902 125.14 19.6606ZM133.195 18.6981V16.6685H133.153C132.881 17.1707 132.149 17.4636 130.391 17.7775C128.132 18.175 127.253 18.6772 127.253 19.5978C127.253 20.6231 127.985 21.0834 129.638 21.0834C131.521 21.0834 133.195 19.9744 133.195 18.6981ZM137.526 22.6527V11.5632H139.618V12.7977H139.66C140.518 11.8143 142.004 11.2494 143.531 11.2494C146.69 11.2494 148.825 13.2162 148.825 16.0827V22.6527H146.67V16.4384C146.67 14.4088 145.372 13.1534 143.343 13.1534C142.255 13.1534 141.376 13.4673 140.685 14.095C140.016 14.7017 139.681 15.4968 139.681 16.4802V22.6527H137.526Z" fill="var(--fill-0, black)"/>
</g>
<defs>
<clipPath id="clip0_0_12">
<rect width="150" height="30.655" fill="white"/>
</clipPath>
</defs>
</svg>
